<svg xmlns="http://www.w3.org/2000/svg" xmlns:xlink="http://www.w3.org/1999/xlink" width="500" zoomAndPan="magnify" viewBox="0 0 375 374.999991" height="500" preserveAspectRatio="xMidYMid meet" version="1.0"><defs><clipPath id="8d20a894c8"><path d="M 32 149 L 375 149 L 375 367.140625 L 32 367.140625 Z M 32 149 " clip-rule="nonzero"/></clipPath><clipPath id="232eba0cff"><path d="M 0 7.890625 L 371 7.890625 L 371 267 L 0 267 Z M 0 7.890625 " clip-rule="nonzero"/></clipPath></defs><g clip-path="url(#8d20a894c8)"><path fill="#4ecaab" d="M 372.367188 157.730469 C 374.011719 167.421875 374.867188 177.378906 374.867188 187.515625 C 374.867188 286.433594 294.1875 367.113281 195.265625 367.113281 C 123.746094 367.113281 61.796875 324.910156 32.949219 264.144531 C 82.34375 248.046875 124.140625 218.761719 164.988281 181.367188 C 182.554688 194.8125 203.941406 210.285156 222.214844 222.707031 C 193.804688 252.828125 106.535156 303.15625 91.625 308.167969 C 161.964844 302.066406 247.875 265.105469 354.988281 149.859375 C 360.789062 152.484375 366.570312 155.105469 372.367188 157.730469 " fill-opacity="1" fill-rule="evenodd"/></g><g clip-path="url(#232eba0cff)"><path fill="#000000" d="M 195.265625 7.914062 C 253.160156 7.914062 304.75 35.539062 337.640625 78.269531 L 370.441406 68.074219 L 370.386719 68.625 C 344.832031 88.238281 317.28125 103.515625 289.691406 120.273438 C 298.738281 124.375 307.785156 128.472656 316.832031 132.566406 C 295.347656 158.65625 271.933594 181.964844 255.675781 193.75 C 220.359375 176.496094 190.722656 152.339844 162.542969 124.410156 C 122.308594 178.769531 65.070312 228.363281 0.140625 266.8125 L 24.195312 242.066406 C 18.671875 224.847656 15.671875 206.527344 15.671875 187.515625 C 15.671875 88.59375 96.34375 7.914062 195.265625 7.914062 " fill-opacity="1" fill-rule="evenodd"/></g></svg>